# xmcd
#
# Track frame offsets:
#	172
#	19860
#	35702
#	49860
#	61960
#	75397
#	88430
#	102600
#	119277
#	132955
#	149420
#	163115
#	176367
#	190800
#	201485
#
# Disc length: 2887 seconds
#
# Revision: 2
# Processed by: cddbd v1.4b41PL3 Copyright (c) Steve Scherf et al.
# Submitted via: audiograbber 1.80
#
DISCID=dc0b450f
DTITLE=The Jambalaya Cajun Band - Instrumental Collection
DYEAR=1900
DGENRE=
TTITLE0=Hathway Two-Step
TTITLE1=Big Boy Waltz
TTITLE2=Mamou Hot Step
TTITLE3=Le Chanson de Mardi Gras
TTITLE4=Chere Mom
TTITLE5=Over the Waves
TTITLE6=Les Veuves de la Coulee
TTITLE7=J'ai Passe Devant Ta Porte
TTITLE8=Bayou Teche Two-Step
TTITLE9=La Valse de Grand Bois
TTITLE10=Jambalaya
TTITLE11=Ossun Two-Step
TTITLE12=Madame Sosthene
TTITLE13=Mon Bon Vieux Mari
TTITLE14=Quoi Faire
EXTD=
EXTT0=
EXTT1=
EXTT2=
EXTT3=
EXTT4=
EXTT5=
EXTT6=
EXTT7=
EXTT8=
EXTT9=
EXTT10=
EXTT11=
EXTT12=
EXTT13=
EXTT14=
PLAYORDER=
